<?xml version="1.0" encoding="utf-8"?>
<!-- Generator: Adobe Illustrator 23.1.0, SVG Export Plug-In . SVG Version: 6.00 Build 0)  -->
<svg version="1.1" id="Layer_1" xmlns="http://www.w3.org/2000/svg" xmlns:xlink="http://www.w3.org/1999/xlink" x="0px" y="0px"
	 viewBox="0 0 256 256" style="enable-background:new 0 0 256 256;" xml:space="preserve">
<style type="text/css">
	.st0{fill:#E2E2E2;}
	.st1{fill:#F15642;}
	.st2{fill:#BE4030;}
	.st3{fill:#FFFFFF;}
	.st4{fill:#B7B7B7;}
</style>
<desc>Created with Fabric.js 1.7.22</desc>
<path class="st0" d="M244.4,75.2v163.9c0,8.2-6.7,14.9-14.9,14.9H63.8c-8.2,0-14.9-6.7-14.9-14.9v-36.8V16.9C48.9,8.6,55.6,2,63.8,2
	h107.3C194.3,2.3,244.4,46.8,244.4,75.2z"/>
<path class="st1" d="M49.1,143.2h112.8c9,0,16.3,7.3,16.3,16.3v51.4c0,9-7.3,16.3-16.3,16.3h-134c-9,0-16.3-7.3-16.3-16.3v-84"/>
<path class="st2" d="M11.6,126.9c0,9,7.3,16.3,16.3,16.3h21.2v-31.7H27.9c-9,0-16.3,7.3-16.3,16.3"/>
<path class="st3" d="M73,159.5H57.6c-2.3,0-4.2,1.9-4.2,4.2v25.5v17.5c0,2.3,1.9,4.2,4.2,4.2s4.2-1.9,4.2-4.2v-13.3H73
	c6.4,0,11.5-5.2,11.5-11.5V171C84.5,164.7,79.3,159.5,73,159.5z M76.1,181.8c0,1.7-1.4,3.1-3.1,3.1H61.8v-17.1H73
	c1.7,0,3.1,1.4,3.1,3.1V181.8z"/>
<path class="st3" d="M111.7,159.5H97.1c-2.3,0-4.2,1.9-4.2,4.2v42.9c0,2.3,1.9,4.2,4.2,4.2h14.6c6.8,0,12.3-5.5,12.3-12.3v-26.7
	C124,165,118.5,159.5,111.7,159.5z M115.6,198.5c0,2.1-1.7,3.9-3.9,3.9h-10.4v-34.5h10.4c2.1,0,3.9,1.7,3.9,3.9V198.5z"/>
<path class="st3" d="M160.2,159.5h-22.7c-2.3,0-4.2,1.9-4.2,4.2v42.9c0,2.3,1.9,4.2,4.2,4.2c2.3,0,4.2-1.9,4.2-4.2v-17.3h10.7
	c2.3,0,4.2-1.9,4.2-4.2s-1.9-4.2-4.2-4.2h-10.7v-13.1h18.5c2.3,0,4.2-1.9,4.2-4.2S162.5,159.5,160.2,159.5z"/>
<path class="st4" d="M171.1,2h18.7c7.9,0,15.5,3.1,21.1,8.7l24.8,24.8c5.6,5.6,8.7,13.2,8.7,21.1v18.7c0-9.6-7.8-17.3-17.3-17.3h-22
	c-9.2,0-16.6-7.4-16.6-16.6v-22l0,0C188.4,9.7,180.7,2,171.1,2L171.1,2z"/>
<path class="st4" d="M161.4,87.7c-1.6,1.6-4.3,1.6-5.9,0L140.8,73v43.8c0,2.3-1.9,4.2-4.2,4.2c-2.3,0-4.2-1.9-4.2-4.2V73l-14.7,14.7
	c-1.6,1.6-4.3,1.6-5.9,0c-1.6-1.6-1.6-4.3,0-5.9l17.7-17.7c1.8-1.8,4-2.7,6.3-2.9c0.3-0.1,0.6-0.1,0.9-0.1s0.6,0,0.9,0.1
	c2.3,0.2,4.5,1.1,6.3,2.9l17.7,17.7C163,83.4,163,86.1,161.4,87.7z"/>
</svg>
